<mxfile host="app.diagrams.net" modified="2021-01-20T13:33:23.170Z" agent="5.0 (Macintosh; Intel Mac OS X 10_14_6) AppleWebKit/605.1.15 (KHTML, like Gecko) Version/13.1.2 Safari/605.1.15" etag="T82I5XK-1oofPwQZqzt-" version="14.1.9" type="github">
  <diagram id="SahZXZe3I7VtPZI_t90g" name="Page-1">
    <mxGraphModel dx="946" dy="662" grid="1" gridSize="10" guides="1" tooltips="1" connect="1" arrows="1" fold="1" page="1" pageScale="1" pageWidth="827" pageHeight="1169" math="0" shadow="0">
      <root>
        <mxCell id="0" />
        <mxCell id="1" parent="0" />
        <mxCell id="UJYX6iPwt1RgCubA-azE-27" value="" style="rounded=0;whiteSpace=wrap;html=1;fontStyle=1" vertex="1" parent="1">
          <mxGeometry x="360" y="230" width="180" height="60" as="geometry" />
        </mxCell>
        <mxCell id="UJYX6iPwt1RgCubA-azE-28" value="false" style="whiteSpace=wrap;html=1;aspect=fixed;fontStyle=1" vertex="1" parent="1">
          <mxGeometry x="360" y="230" width="60" height="60" as="geometry" />
        </mxCell>
        <mxCell id="UJYX6iPwt1RgCubA-azE-29" value="false" style="whiteSpace=wrap;html=1;aspect=fixed;fontStyle=1" vertex="1" parent="1">
          <mxGeometry x="420" y="230" width="60" height="60" as="geometry" />
        </mxCell>
        <mxCell id="UJYX6iPwt1RgCubA-azE-30" value="true" style="whiteSpace=wrap;html=1;aspect=fixed;fontStyle=1" vertex="1" parent="1">
          <mxGeometry x="480" y="230" width="60" height="60" as="geometry" />
        </mxCell>
        <mxCell id="UJYX6iPwt1RgCubA-azE-31" value="" style="rounded=0;whiteSpace=wrap;html=1;fontStyle=1" vertex="1" parent="1">
          <mxGeometry x="360" y="320" width="180" height="60" as="geometry" />
        </mxCell>
        <mxCell id="UJYX6iPwt1RgCubA-azE-32" value="true" style="whiteSpace=wrap;html=1;aspect=fixed;fontStyle=1" vertex="1" parent="1">
          <mxGeometry x="360" y="320" width="60" height="60" as="geometry" />
        </mxCell>
        <mxCell id="UJYX6iPwt1RgCubA-azE-33" value="true" style="whiteSpace=wrap;html=1;aspect=fixed;fontStyle=1" vertex="1" parent="1">
          <mxGeometry x="420" y="320" width="60" height="60" as="geometry" />
        </mxCell>
        <mxCell id="UJYX6iPwt1RgCubA-azE-34" value="false" style="whiteSpace=wrap;html=1;aspect=fixed;fontStyle=1" vertex="1" parent="1">
          <mxGeometry x="480" y="320" width="60" height="60" as="geometry" />
        </mxCell>
        <mxCell id="UJYX6iPwt1RgCubA-azE-35" value="" style="rounded=0;whiteSpace=wrap;html=1;fontStyle=1" vertex="1" parent="1">
          <mxGeometry x="360" y="410" width="180" height="60" as="geometry" />
        </mxCell>
        <mxCell id="UJYX6iPwt1RgCubA-azE-36" value="true" style="whiteSpace=wrap;html=1;aspect=fixed;fontStyle=1" vertex="1" parent="1">
          <mxGeometry x="360" y="410" width="60" height="60" as="geometry" />
        </mxCell>
        <mxCell id="UJYX6iPwt1RgCubA-azE-37" value="&lt;span&gt;true&lt;/span&gt;" style="whiteSpace=wrap;html=1;aspect=fixed;fontStyle=1" vertex="1" parent="1">
          <mxGeometry x="420" y="410" width="60" height="60" as="geometry" />
        </mxCell>
        <mxCell id="UJYX6iPwt1RgCubA-azE-38" value="true" style="whiteSpace=wrap;html=1;aspect=fixed;fontStyle=1" vertex="1" parent="1">
          <mxGeometry x="480" y="410" width="60" height="60" as="geometry" />
        </mxCell>
        <mxCell id="UJYX6iPwt1RgCubA-azE-39" value="新建实验" style="text;html=1;strokeColor=none;fillColor=none;align=center;verticalAlign=middle;whiteSpace=wrap;rounded=0;" vertex="1" parent="1">
          <mxGeometry x="290" y="250" width="50" height="20" as="geometry" />
        </mxCell>
        <mxCell id="UJYX6iPwt1RgCubA-azE-40" value="holdback" style="text;html=1;strokeColor=none;fillColor=none;align=center;verticalAlign=middle;whiteSpace=wrap;rounded=0;" vertex="1" parent="1">
          <mxGeometry x="290" y="340" width="40" height="20" as="geometry" />
        </mxCell>
        <mxCell id="UJYX6iPwt1RgCubA-azE-41" value="全量" style="text;html=1;strokeColor=none;fillColor=none;align=center;verticalAlign=middle;whiteSpace=wrap;rounded=0;" vertex="1" parent="1">
          <mxGeometry x="290" y="430" width="40" height="20" as="geometry" />
        </mxCell>
        <mxCell id="UJYX6iPwt1RgCubA-azE-42" value="" style="rounded=0;whiteSpace=wrap;html=1;fontStyle=1" vertex="1" parent="1">
          <mxGeometry x="360" y="150" width="180" height="60" as="geometry" />
        </mxCell>
        <mxCell id="UJYX6iPwt1RgCubA-azE-43" value="标签1" style="whiteSpace=wrap;html=1;aspect=fixed;fontStyle=1" vertex="1" parent="1">
          <mxGeometry x="360" y="150" width="60" height="60" as="geometry" />
        </mxCell>
        <mxCell id="UJYX6iPwt1RgCubA-azE-44" value="标签2" style="whiteSpace=wrap;html=1;aspect=fixed;fontStyle=1" vertex="1" parent="1">
          <mxGeometry x="420" y="150" width="60" height="60" as="geometry" />
        </mxCell>
        <mxCell id="UJYX6iPwt1RgCubA-azE-45" value="标签3" style="whiteSpace=wrap;html=1;aspect=fixed;fontStyle=1" vertex="1" parent="1">
          <mxGeometry x="480" y="150" width="60" height="60" as="geometry" />
        </mxCell>
      </root>
    </mxGraphModel>
  </diagram>
</mxfile>
